<svg xmlns="http://www.w3.org/2000/svg" width="60" height="61" fill="none" viewBox="0 0 60 61"><g filter="url(#filter0_b_302_89)"><circle cx="30" cy="30.5" r="30" fill="#fff" fill-opacity=".22"/></g><path fill="#fff" d="M25.8298 17.7023L24.7184 18.0371C23.7288 18.3355 22.8451 18.9104 22.1713 19.6941C21.4974 20.4778 21.0615 21.4377 20.9147 22.4608C20.4544 25.6662 21.4836 29.4141 23.9651 33.7123C26.4405 37.9996 29.1654 40.7617 32.1646 41.9707C33.1283 42.3591 34.1832 42.4625 35.204 42.2688C36.2248 42.0751 37.1685 41.5923 37.9229 40.8779L38.763 40.0812C39.3085 39.5649 39.648 38.8681 39.7184 38.1203C39.7888 37.3725 39.5854 36.6246 39.1458 36.0156L37.044 33.1016C36.7598 32.7082 36.3597 32.4135 35.8997 32.259C35.4397 32.1044 34.9428 32.0977 34.4788 32.2398L31.2997 33.2116L31.2176 33.2271C30.8673 33.2783 30.0582 32.5203 29.0507 30.775C27.9967 28.9491 27.7797 27.8812 28.0695 27.6053L29.6862 26.0971C30.2773 25.546 30.6812 24.8237 30.841 24.0315C31.0009 23.2392 30.9087 22.4168 30.5774 21.6796L29.5513 19.3996C29.2428 18.7134 28.6952 18.1629 28.0108 17.8507C27.3264 17.5384 26.5502 17.4857 25.8298 17.7023ZM28.1393 20.0351L29.1623 22.3151C29.3615 22.7572 29.4172 23.2506 29.3216 23.726C29.2259 24.2014 28.9837 24.6349 28.6291 24.9656L27.0078 26.4753C25.9708 27.458 26.3149 29.1351 27.7099 31.55C29.0212 33.8223 30.2178 34.9445 31.5043 34.7492L31.6965 34.7089L34.9329 33.7216C35.0876 33.674 35.2533 33.6761 35.4067 33.7276C35.5602 33.779 35.6937 33.8772 35.7885 34.0083L37.8903 36.9223C38.1104 37.2268 38.2124 37.6009 38.1773 37.975C38.1422 38.349 37.9725 38.6976 37.6997 38.9559L36.858 39.7526C36.3191 40.2626 35.6452 40.6072 34.9162 40.7454C34.1873 40.8836 33.434 40.8096 32.7459 40.5323C30.114 39.4721 27.6262 36.9502 25.309 32.9373C22.9855 28.915 22.0447 25.4942 22.4492 22.6809C22.5539 21.95 22.8653 21.2642 23.3467 20.7043C23.8281 20.1443 24.4594 19.7336 25.1664 19.5205L26.2777 19.1857C26.638 19.0774 27.0254 19.1039 27.3676 19.2602C27.7099 19.4164 27.9836 19.6919 28.1377 20.0351H28.1393Z"/><defs><filter id="filter0_b_302_89" width="68" height="68" x="-4" y="-3.5" color-interpolation-filters="sRGB" filterUnits="userSpaceOnUse"><feFlood flood-opacity="0" result="BackgroundImageFix"/><feGaussianBlur in="BackgroundImageFix" stdDeviation="2"/><feComposite in2="SourceAlpha" operator="in" result="effect1_backgroundBlur_302_89"/><feBlend in="SourceGraphic" in2="effect1_backgroundBlur_302_89" mode="normal" result="shape"/></filter></defs></svg>