<svg xmlns="http://www.w3.org/2000/svg" width="97" height="97" fill="none" viewBox="0 0 97 97"><g filter="url(#filter0_d_655_1248)"><circle cx="48.5" cy="48.5" r="42.5" fill="#340067"/></g><path fill="#fff" d="M43.1376 31.4246C44.6906 29.8721 46.7966 29 48.9925 29C51.1884 29 53.2944 29.8721 54.8473 31.4246L66.5603 43.1376C68.1128 44.6906 68.985 46.7966 68.985 48.9925C68.985 51.1884 68.1128 53.2944 66.5603 54.8473L54.8473 66.5603C53.2944 68.1128 51.1884 68.985 48.9925 68.985C46.7966 68.985 44.6906 68.1128 43.1376 66.5603L31.4246 54.8473C29.8721 53.2944 29 51.1884 29 48.9925C29 46.7966 29.8721 44.6906 31.4246 43.1376L43.1376 31.4246ZM52.5054 33.7666C51.5736 32.8351 50.31 32.3118 48.9925 32.3118C47.6749 32.3118 46.4114 32.8351 45.4796 33.7666L33.7666 45.4796C32.8351 46.4114 32.3118 47.6749 32.3118 48.9925C32.3118 50.31 32.8351 51.5736 33.7666 52.5054L45.4796 64.2184C46.4114 65.1499 47.6749 65.6732 48.9925 65.6732C50.31 65.6732 51.5736 65.1499 52.5054 64.2184L64.2184 52.5054C65.1499 51.5736 65.6732 50.31 65.6732 48.9925C65.6732 47.6749 65.1499 46.4114 64.2184 45.4796L52.5054 33.7666ZM49.4778 37.884C49.7884 37.5735 50.2096 37.3991 50.6487 37.3991C51.0879 37.3991 51.5091 37.5735 51.8197 37.884L56.7885 42.8528C57.099 43.1634 57.2734 43.5846 57.2734 44.0237C57.2734 44.4629 57.099 44.8841 56.7885 45.1947L51.8197 50.1635C51.5073 50.4651 51.089 50.6321 50.6547 50.6283C50.2204 50.6245 49.805 50.4504 49.4979 50.1433C49.1909 49.8362 49.0167 49.4208 49.0129 48.9865C49.0091 48.5523 49.1761 48.1339 49.4778 47.8215L51.6176 45.6783H47.3346C46.8953 45.6783 46.474 45.8528 46.1634 46.1634C45.8528 46.474 45.6783 46.8953 45.6783 47.3346V55.6158C45.6783 56.0551 45.5038 56.4764 45.1932 56.787C44.8826 57.0976 44.4613 57.2721 44.0221 57.2721C43.5828 57.2721 43.1615 57.0976 42.8509 56.787C42.5403 56.4764 42.3658 56.0551 42.3658 55.6158V47.3346C42.3658 46.0168 42.8893 44.753 43.8211 43.8211C44.753 42.8893 46.0168 42.3658 47.3346 42.3658H51.6176L49.4778 40.226C49.1673 39.9154 48.9928 39.4942 48.9928 39.055C48.9928 38.6158 49.1673 38.1946 49.4778 37.884Z"/><defs><filter id="filter0_d_655_1248" width="97" height="97" x="0" y="0" color-interpolation-filters="sRGB" filterUnits="userSpaceOnUse"><feFlood flood-opacity="0" result="BackgroundImageFix"/><feColorMatrix in="SourceAlpha" result="hardAlpha" type="matrix" values="0 0 0 0 0 0 0 0 0 0 0 0 0 0 0 0 0 0 127 0"/><feMorphology in="SourceAlpha" operator="dilate" radius="2" result="effect1_dropShadow_655_1248"/><feOffset/><feGaussianBlur stdDeviation="2"/><feComposite in2="hardAlpha" operator="out"/><feColorMatrix type="matrix" values="0 0 0 0 0 0 0 0 0 0 0 0 0 0 0 0 0 0 0.25 0"/><feBlend in2="BackgroundImageFix" mode="normal" result="effect1_dropShadow_655_1248"/><feBlend in="SourceGraphic" in2="effect1_dropShadow_655_1248" mode="normal" result="shape"/></filter></defs></svg>