<svg xmlns="http://www.w3.org/2000/svg" width="53" height="70" fill="none" viewBox="0 0 53 70"><path stroke="#fff" stroke-linejoin="round" stroke-width="2" d="M39.8334 13.3334H13.1667C11.786 13.3334 10.6667 14.4527 10.6667 15.8334V32.5C10.6667 33.8807 11.786 35 13.1667 35H39.8334C41.2141 35 42.3334 33.8807 42.3334 32.5V15.8334C42.3334 14.4527 41.2141 13.3334 39.8334 13.3334Z"/><path fill="#fff" d="M22.3334 6.6667H30.6667V3.33336H22.3334V6.6667ZM31.5001 7.50003V13.3334H34.8334V7.50003H31.5001ZM21.5001 13.3334V7.50003H18.1667V13.3334H21.5001ZM30.6667 6.6667C30.8878 6.6667 31.0997 6.7545 31.256 6.91078C31.4123 7.06706 31.5001 7.27902 31.5001 7.50003H34.8334C34.8334 6.39496 34.3944 5.33515 33.613 4.55375C32.8316 3.77235 31.7718 3.33336 30.6667 3.33336V6.6667ZM22.3334 3.33336C21.2283 3.33336 20.1685 3.77235 19.3871 4.55375C18.6057 5.33515 18.1667 6.39496 18.1667 7.50003H21.5001C21.5001 7.27902 21.5879 7.06706 21.7442 6.91078C21.9004 6.7545 22.1124 6.6667 22.3334 6.6667V3.33336Z"/><path stroke="#fff" stroke-linecap="round" stroke-linejoin="round" stroke-width="2" d="M21.5 24.1667H31.5M26.5 19.1667V29.1667"/><path fill="#fff" d="M10.7427 43.504C11.7107 43.504 12.4667 43.784 13.0107 44.344C13.5547 44.904 13.8267 45.716 13.8267 46.78V52H12.6387V46.816C12.6387 46.08 12.4467 45.524 12.0627 45.148C11.6787 44.764 11.1707 44.572 10.5387 44.572C9.84273 44.572 9.29073 44.772 8.88273 45.172C8.48273 45.564 8.28273 46.168 8.28273 46.984V52H7.09473V46.816C7.09473 46.072 6.91073 45.512 6.54273 45.136C6.18273 44.76 5.68673 44.572 5.05473 44.572C4.35073 44.572 3.79073 44.772 3.37473 45.172C2.96673 45.572 2.76273 46.176 2.76273 46.984V52H1.56273V43.6H2.71473V44.824C2.96273 44.408 3.31073 44.084 3.75873 43.852C4.21473 43.62 4.74273 43.504 5.34273 43.504C5.96673 43.504 6.50273 43.628 6.95073 43.876C7.40673 44.124 7.74273 44.468 7.95873 44.908C8.22273 44.46 8.59473 44.116 9.07473 43.876C9.56273 43.628 10.1187 43.504 10.7427 43.504ZM18.9815 51.064C19.7415 51.064 20.3535 50.808 20.8175 50.296L21.4415 51.04C21.1615 51.376 20.8055 51.632 20.3735 51.808C19.9495 51.984 19.4735 52.072 18.9455 52.072C18.2735 52.072 17.6775 51.936 17.1575 51.664C16.6375 51.384 16.2335 50.996 15.9455 50.5C15.6655 50.004 15.5255 49.444 15.5255 48.82C15.5255 48.204 15.6615 47.648 15.9335 47.152C16.2135 46.656 16.5935 46.272 17.0735 46C17.5615 45.72 18.1095 45.58 18.7175 45.58C19.2935 45.58 19.8175 45.712 20.2895 45.976C20.7615 46.232 21.1375 46.596 21.4175 47.068C21.6975 47.54 21.8415 48.084 21.8495 48.7L16.7975 49.684C16.9575 50.124 17.2255 50.464 17.6015 50.704C17.9855 50.944 18.4455 51.064 18.9815 51.064ZM18.7175 46.552C18.3175 46.552 17.9575 46.644 17.6375 46.828C17.3255 47.012 17.0815 47.272 16.9055 47.608C16.7295 47.936 16.6415 48.32 16.6415 48.76V48.88L20.7095 48.112C20.6055 47.648 20.3735 47.272 20.0135 46.984C19.6535 46.696 19.2215 46.552 18.7175 46.552ZM29.4611 43.096V52H28.3571V50.992C28.1011 51.344 27.7771 51.612 27.3851 51.796C26.9931 51.98 26.5611 52.072 26.0891 52.072C25.4731 52.072 24.9211 51.936 24.4331 51.664C23.9451 51.392 23.5611 51.012 23.2811 50.524C23.0091 50.028 22.8731 49.46 22.8731 48.82C22.8731 48.18 23.0091 47.616 23.2811 47.128C23.5611 46.64 23.9451 46.26 24.4331 45.988C24.9211 45.716 25.4731 45.58 26.0891 45.58C26.5451 45.58 26.9651 45.668 27.3491 45.844C27.7331 46.012 28.0531 46.264 28.3091 46.6V43.096H29.4611ZM26.1851 51.064C26.5851 51.064 26.9491 50.972 27.2771 50.788C27.6051 50.596 27.8611 50.332 28.0451 49.996C28.2291 49.652 28.3211 49.26 28.3211 48.82C28.3211 48.38 28.2291 47.992 28.0451 47.656C27.8611 47.312 27.6051 47.048 27.2771 46.864C26.9491 46.68 26.5851 46.588 26.1851 46.588C25.7771 46.588 25.4091 46.68 25.0811 46.864C24.7611 47.048 24.5051 47.312 24.3131 47.656C24.1291 47.992 24.0371 48.38 24.0371 48.82C24.0371 49.26 24.1291 49.652 24.3131 49.996C24.5051 50.332 24.7611 50.596 25.0811 50.788C25.4091 50.972 25.7771 51.064 26.1851 51.064ZM31.6408 45.64H32.7928V52H31.6408V45.64ZM32.2168 44.416C31.9928 44.416 31.8048 44.344 31.6528 44.2C31.5088 44.056 31.4368 43.88 31.4368 43.672C31.4368 43.464 31.5088 43.288 31.6528 43.144C31.8048 42.992 31.9928 42.916 32.2168 42.916C32.4408 42.916 32.6248 42.988 32.7688 43.132C32.9208 43.268 32.9968 43.44 32.9968 43.648C32.9968 43.864 32.9208 44.048 32.7688 44.2C32.6248 44.344 32.4408 44.416 32.2168 44.416ZM37.7644 52.072C37.1164 52.072 36.5364 51.932 36.0244 51.652C35.5204 51.372 35.1244 50.988 34.8364 50.5C34.5484 50.004 34.4044 49.444 34.4044 48.82C34.4044 48.196 34.5484 47.64 34.8364 47.152C35.1244 46.656 35.5204 46.272 36.0244 46C36.5364 45.72 37.1164 45.58 37.7644 45.58C38.3404 45.58 38.8524 45.696 39.3004 45.928C39.7564 46.16 40.1084 46.496 40.3564 46.936L39.4804 47.5C39.2804 47.196 39.0324 46.968 38.7364 46.816C38.4404 46.664 38.1124 46.588 37.7524 46.588C37.3364 46.588 36.9604 46.68 36.6244 46.864C36.2964 47.048 36.0364 47.312 35.8444 47.656C35.6604 47.992 35.5684 48.38 35.5684 48.82C35.5684 49.268 35.6604 49.664 35.8444 50.008C36.0364 50.344 36.2964 50.604 36.6244 50.788C36.9604 50.972 37.3364 51.064 37.7524 51.064C38.1124 51.064 38.4404 50.988 38.7364 50.836C39.0324 50.684 39.2804 50.456 39.4804 50.152L40.3564 50.704C40.1084 51.144 39.7564 51.484 39.3004 51.724C38.8524 51.956 38.3404 52.072 37.7644 52.072ZM47.7541 45.64V52H46.6501V50.992C46.3941 51.344 46.0701 51.612 45.6781 51.796C45.2861 51.98 44.8541 52.072 44.3821 52.072C43.7661 52.072 43.2141 51.936 42.7261 51.664C42.2381 51.392 41.8541 51.012 41.5741 50.524C41.3021 50.028 41.1661 49.46 41.1661 48.82C41.1661 48.18 41.3021 47.616 41.5741 47.128C41.8541 46.64 42.2381 46.26 42.7261 45.988C43.2141 45.716 43.7661 45.58 44.3821 45.58C44.8381 45.58 45.2581 45.668 45.6421 45.844C46.0261 46.012 46.3461 46.264 46.6021 46.6V45.64H47.7541ZM44.4781 51.064C44.8781 51.064 45.2421 50.972 45.5701 50.788C45.8981 50.596 46.1541 50.332 46.3381 49.996C46.5221 49.652 46.6141 49.26 46.6141 48.82C46.6141 48.38 46.5221 47.992 46.3381 47.656C46.1541 47.312 45.8981 47.048 45.5701 46.864C45.2421 46.68 44.8781 46.588 44.4781 46.588C44.0701 46.588 43.7021 46.68 43.3741 46.864C43.0541 47.048 42.7981 47.312 42.6061 47.656C42.4221 47.992 42.3301 48.38 42.3301 48.82C42.3301 49.26 42.4221 49.652 42.6061 49.996C42.7981 50.332 43.0541 50.596 43.3741 50.788C43.7021 50.972 44.0701 51.064 44.4781 51.064ZM51.8658 52.072C51.2498 52.072 50.7738 51.904 50.4378 51.568C50.1018 51.224 49.9338 50.744 49.9338 50.128V43.096H51.0858V50.032C51.0858 50.376 51.1658 50.64 51.3258 50.824C51.4938 51.008 51.7418 51.1 52.0698 51.1C52.2698 51.1 52.4578 51.06 52.6338 50.98L52.6938 51.928C52.4298 52.024 52.1538 52.072 51.8658 52.072ZM14.3467 67.096C13.7147 67.096 13.1027 67 12.5107 66.808C11.9267 66.608 11.4667 66.352 11.1307 66.04L11.5747 65.104C11.8947 65.392 12.3027 65.628 12.7987 65.812C13.3027 65.988 13.8187 66.076 14.3467 66.076C15.0427 66.076 15.5627 65.96 15.9067 65.728C16.2507 65.488 16.4227 65.172 16.4227 64.78C16.4227 64.492 16.3267 64.26 16.1347 64.084C15.9507 63.9 15.7187 63.76 15.4387 63.664C15.1667 63.568 14.7787 63.46 14.2747 63.34C13.6427 63.188 13.1307 63.036 12.7387 62.884C12.3547 62.732 12.0227 62.5 11.7427 62.188C11.4707 61.868 11.3347 61.44 11.3347 60.904C11.3347 60.456 11.4507 60.052 11.6827 59.692C11.9227 59.332 12.2827 59.044 12.7627 58.828C13.2427 58.612 13.8387 58.504 14.5507 58.504C15.0467 58.504 15.5347 58.568 16.0147 58.696C16.4947 58.824 16.9067 59.008 17.2507 59.248L16.8547 60.208C16.5027 59.984 16.1267 59.816 15.7267 59.704C15.3267 59.584 14.9347 59.524 14.5507 59.524C13.8707 59.524 13.3587 59.648 13.0147 59.896C12.6787 60.144 12.5107 60.464 12.5107 60.856C12.5107 61.144 12.6067 61.38 12.7987 61.564C12.9907 61.74 13.2267 61.88 13.5067 61.984C13.7947 62.08 14.1827 62.184 14.6707 62.296C15.3027 62.448 15.8107 62.6 16.1947 62.752C16.5787 62.904 16.9067 63.136 17.1787 63.448C17.4587 63.76 17.5987 64.18 17.5987 64.708C17.5987 65.148 17.4787 65.552 17.2387 65.92C16.9987 66.28 16.6347 66.568 16.1467 66.784C15.6587 66.992 15.0587 67.096 14.3467 67.096ZM22.5318 66.628C22.3638 66.772 22.1558 66.884 21.9078 66.964C21.6598 67.036 21.4038 67.072 21.1398 67.072C20.4998 67.072 20.0038 66.9 19.6518 66.556C19.2998 66.212 19.1238 65.72 19.1238 65.08V59.248H20.2758V60.64H22.0998V61.588H20.2758V65.032C20.2758 65.376 20.3598 65.64 20.5278 65.824C20.7038 66.008 20.9518 66.1 21.2718 66.1C21.6238 66.1 21.9238 66 22.1718 65.8L22.5318 66.628ZM26.4312 67.072C25.7992 67.072 25.2312 66.932 24.7272 66.652C24.2232 66.372 23.8272 65.988 23.5392 65.5C23.2592 65.004 23.1192 64.444 23.1192 63.82C23.1192 63.196 23.2592 62.64 23.5392 62.152C23.8272 61.656 24.2232 61.272 24.7272 61C25.2312 60.72 25.7992 60.58 26.4312 60.58C27.0632 60.58 27.6272 60.72 28.1232 61C28.6272 61.272 29.0192 61.656 29.2992 62.152C29.5872 62.64 29.7312 63.196 29.7312 63.82C29.7312 64.444 29.5872 65.004 29.2992 65.5C29.0192 65.988 28.6272 66.372 28.1232 66.652C27.6272 66.932 27.0632 67.072 26.4312 67.072ZM26.4312 66.064C26.8392 66.064 27.2032 65.972 27.5232 65.788C27.8512 65.596 28.1072 65.332 28.2912 64.996C28.4752 64.652 28.5672 64.26 28.5672 63.82C28.5672 63.38 28.4752 62.992 28.2912 62.656C28.1072 62.312 27.8512 62.048 27.5232 61.864C27.2032 61.68 26.8392 61.588 26.4312 61.588C26.0232 61.588 25.6552 61.68 25.3272 61.864C25.0072 62.048 24.7512 62.312 24.5592 62.656C24.3752 62.992 24.2832 63.38 24.2832 63.82C24.2832 64.26 24.3752 64.652 24.5592 64.996C24.7512 65.332 25.0072 65.596 25.3272 65.788C25.6552 65.972 26.0232 66.064 26.4312 66.064ZM32.4284 61.708C32.6284 61.34 32.9244 61.06 33.3164 60.868C33.7084 60.676 34.1844 60.58 34.7444 60.58V61.696C34.6804 61.688 34.5924 61.684 34.4804 61.684C33.8564 61.684 33.3644 61.872 33.0044 62.248C32.6524 62.616 32.4764 63.144 32.4764 63.832V67H31.3244V60.64H32.4284V61.708ZM38.9737 66.064C39.7337 66.064 40.3457 65.808 40.8097 65.296L41.4337 66.04C41.1537 66.376 40.7977 66.632 40.3657 66.808C39.9417 66.984 39.4657 67.072 38.9377 67.072C38.2657 67.072 37.6697 66.936 37.1497 66.664C36.6297 66.384 36.2257 65.996 35.9377 65.5C35.6577 65.004 35.5177 64.444 35.5177 63.82C35.5177 63.204 35.6537 62.648 35.9257 62.152C36.2057 61.656 36.5857 61.272 37.0657 61C37.5537 60.72 38.1017 60.58 38.7097 60.58C39.2857 60.58 39.8097 60.712 40.2817 60.976C40.7537 61.232 41.1297 61.596 41.4097 62.068C41.6897 62.54 41.8337 63.084 41.8417 63.7L36.7897 64.684C36.9497 65.124 37.2177 65.464 37.5937 65.704C37.9777 65.944 38.4377 66.064 38.9737 66.064ZM38.7097 61.552C38.3097 61.552 37.9497 61.644 37.6297 61.828C37.3177 62.012 37.0737 62.272 36.8977 62.608C36.7217 62.936 36.6337 63.32 36.6337 63.76V63.88L40.7017 63.112C40.5977 62.648 40.3657 62.272 40.0057 61.984C39.6457 61.696 39.2137 61.552 38.7097 61.552Z"/></svg>