<svg width="45" height="70" viewBox="0 0 45 70" fill="none" xmlns="http://www.w3.org/2000/svg">
<path d="M19.0499 24.3334L22.4999 21.6667L25.8666 24.27L24.5633 20.0767L28.1416 17.3084H23.8833L22.4999 13.05L21.1166 17.3067H16.8566L20.3516 20.075L19.0499 24.3334ZM22.4999 34.9367C19.1521 33.9423 16.3705 31.9139 14.1549 28.8517C11.9405 25.7884 10.8333 22.3378 10.8333 18.5V9.4867L22.4999 5.12836L34.1666 9.4867V18.5C34.1666 22.3378 33.0594 25.7878 30.8449 28.85C28.6294 31.9134 25.8477 33.9423 22.4999 34.9367ZM22.4999 33.1667C25.3888 32.25 27.7777 30.4167 29.6666 27.6667C31.5555 24.9167 32.4999 21.8611 32.4999 18.5V10.625L22.4999 6.90836L12.4999 10.625V18.5C12.4999 21.8611 13.4444 24.9167 15.3333 27.6667C17.2221 30.4167 19.611 32.25 22.4999 33.1667Z" fill="white"/>
<path d="M8.30944 43.6C9.39744 43.6 10.2534 43.86 10.8774 44.38C11.5014 44.9 11.8134 45.616 11.8134 46.528C11.8134 47.44 11.5014 48.156 10.8774 48.676C10.2534 49.196 9.39744 49.456 8.30944 49.456H6.23344V52H5.03344V43.6H8.30944ZM8.27344 48.412C9.03344 48.412 9.61344 48.252 10.0134 47.932C10.4134 47.604 10.6134 47.136 10.6134 46.528C10.6134 45.92 10.4134 45.456 10.0134 45.136C9.61344 44.808 9.03344 44.644 8.27344 44.644H6.23344V48.412H8.27344ZM16.109 52.072C15.477 52.072 14.909 51.932 14.405 51.652C13.901 51.372 13.505 50.988 13.217 50.5C12.937 50.004 12.797 49.444 12.797 48.82C12.797 48.196 12.937 47.64 13.217 47.152C13.505 46.656 13.901 46.272 14.405 46C14.909 45.72 15.477 45.58 16.109 45.58C16.741 45.58 17.305 45.72 17.801 46C18.305 46.272 18.697 46.656 18.977 47.152C19.265 47.64 19.409 48.196 19.409 48.82C19.409 49.444 19.265 50.004 18.977 50.5C18.697 50.988 18.305 51.372 17.801 51.652C17.305 51.932 16.741 52.072 16.109 52.072ZM16.109 51.064C16.517 51.064 16.881 50.972 17.201 50.788C17.529 50.596 17.785 50.332 17.969 49.996C18.153 49.652 18.245 49.26 18.245 48.82C18.245 48.38 18.153 47.992 17.969 47.656C17.785 47.312 17.529 47.048 17.201 46.864C16.881 46.68 16.517 46.588 16.109 46.588C15.701 46.588 15.333 46.68 15.005 46.864C14.685 47.048 14.429 47.312 14.237 47.656C14.053 47.992 13.961 48.38 13.961 48.82C13.961 49.26 14.053 49.652 14.237 49.996C14.429 50.332 14.685 50.596 15.005 50.788C15.333 50.972 15.701 51.064 16.109 51.064ZM22.9342 52.072C22.3182 52.072 21.8422 51.904 21.5062 51.568C21.1702 51.224 21.0022 50.744 21.0022 50.128V43.096H22.1542V50.032C22.1542 50.376 22.2342 50.64 22.3942 50.824C22.5622 51.008 22.8102 51.1 23.1382 51.1C23.3382 51.1 23.5262 51.06 23.7022 50.98L23.7622 51.928C23.4982 52.024 23.2222 52.072 22.9342 52.072ZM24.8576 45.64H26.0096V52H24.8576V45.64ZM25.4336 44.416C25.2096 44.416 25.0216 44.344 24.8696 44.2C24.7256 44.056 24.6536 43.88 24.6536 43.672C24.6536 43.464 24.7256 43.288 24.8696 43.144C25.0216 42.992 25.2096 42.916 25.4336 42.916C25.6576 42.916 25.8416 42.988 25.9856 43.132C26.1376 43.268 26.2136 43.44 26.2136 43.648C26.2136 43.864 26.1376 44.048 25.9856 44.2C25.8416 44.344 25.6576 44.416 25.4336 44.416ZM30.9812 52.072C30.3332 52.072 29.7532 51.932 29.2412 51.652C28.7372 51.372 28.3412 50.988 28.0532 50.5C27.7652 50.004 27.6212 49.444 27.6212 48.82C27.6212 48.196 27.7652 47.64 28.0532 47.152C28.3412 46.656 28.7372 46.272 29.2412 46C29.7532 45.72 30.3332 45.58 30.9812 45.58C31.5572 45.58 32.0692 45.696 32.5172 45.928C32.9732 46.16 33.3252 46.496 33.5732 46.936L32.6972 47.5C32.4972 47.196 32.2492 46.968 31.9532 46.816C31.6572 46.664 31.3292 46.588 30.9692 46.588C30.5532 46.588 30.1772 46.68 29.8412 46.864C29.5132 47.048 29.2532 47.312 29.0612 47.656C28.8772 47.992 28.7852 48.38 28.7852 48.82C28.7852 49.268 28.8772 49.664 29.0612 50.008C29.2532 50.344 29.5132 50.604 29.8412 50.788C30.1772 50.972 30.5532 51.064 30.9692 51.064C31.3292 51.064 31.6572 50.988 31.9532 50.836C32.2492 50.684 32.4972 50.456 32.6972 50.152L33.5732 50.704C33.3252 51.144 32.9732 51.484 32.5172 51.724C32.0692 51.956 31.5572 52.072 30.9812 52.072ZM37.8389 51.064C38.5989 51.064 39.2109 50.808 39.6749 50.296L40.2989 51.04C40.0189 51.376 39.6629 51.632 39.2309 51.808C38.8069 51.984 38.3309 52.072 37.8029 52.072C37.1309 52.072 36.5349 51.936 36.0149 51.664C35.4949 51.384 35.0909 50.996 34.8029 50.5C34.5229 50.004 34.3829 49.444 34.3829 48.82C34.3829 48.204 34.5189 47.648 34.7909 47.152C35.0709 46.656 35.4509 46.272 35.9309 46C36.4189 45.72 36.9669 45.58 37.5749 45.58C38.1509 45.58 38.6749 45.712 39.1469 45.976C39.6189 46.232 39.9949 46.596 40.2749 47.068C40.5549 47.54 40.6989 48.084 40.7069 48.7L35.6549 49.684C35.8149 50.124 36.0829 50.464 36.4589 50.704C36.8429 50.944 37.3029 51.064 37.8389 51.064ZM37.5749 46.552C37.1749 46.552 36.8149 46.644 36.4949 46.828C36.1829 47.012 35.9389 47.272 35.7629 47.608C35.5869 47.936 35.4989 48.32 35.4989 48.76V48.88L39.5669 48.112C39.4629 47.648 39.2309 47.272 38.8709 46.984C38.5109 46.696 38.0789 46.552 37.5749 46.552ZM4.19433 67.096C3.56233 67.096 2.95033 67 2.35833 66.808C1.77433 66.608 1.31433 66.352 0.978328 66.04L1.42233 65.104C1.74233 65.392 2.15033 65.628 2.64633 65.812C3.15033 65.988 3.66633 66.076 4.19433 66.076C4.89033 66.076 5.41033 65.96 5.75433 65.728C6.09833 65.488 6.27033 65.172 6.27033 64.78C6.27033 64.492 6.17433 64.26 5.98233 64.084C5.79833 63.9 5.56633 63.76 5.28633 63.664C5.01433 63.568 4.62633 63.46 4.12233 63.34C3.49033 63.188 2.97833 63.036 2.58633 62.884C2.20233 62.732 1.87033 62.5 1.59033 62.188C1.31833 61.868 1.18233 61.44 1.18233 60.904C1.18233 60.456 1.29833 60.052 1.53033 59.692C1.77033 59.332 2.13033 59.044 2.61033 58.828C3.09033 58.612 3.68633 58.504 4.39833 58.504C4.89433 58.504 5.38233 58.568 5.86233 58.696C6.34233 58.824 6.75433 59.008 7.09833 59.248L6.70233 60.208C6.35033 59.984 5.97433 59.816 5.57433 59.704C5.17433 59.584 4.78233 59.524 4.39833 59.524C3.71833 59.524 3.20633 59.648 2.86233 59.896C2.52633 60.144 2.35833 60.464 2.35833 60.856C2.35833 61.144 2.45433 61.38 2.64633 61.564C2.83833 61.74 3.07433 61.88 3.35433 61.984C3.64233 62.08 4.03033 62.184 4.51833 62.296C5.15033 62.448 5.65833 62.6 6.04233 62.752C6.42633 62.904 6.75433 63.136 7.02633 63.448C7.30633 63.76 7.44633 64.18 7.44633 64.708C7.44633 65.148 7.32633 65.552 7.08633 65.92C6.84633 66.28 6.48233 66.568 5.99433 66.784C5.50633 66.992 4.90633 67.096 4.19433 67.096ZM12.3795 66.628C12.2115 66.772 12.0035 66.884 11.7555 66.964C11.5075 67.036 11.2515 67.072 10.9875 67.072C10.3475 67.072 9.85145 66.9 9.49945 66.556C9.14745 66.212 8.97145 65.72 8.97145 65.08V59.248H10.1235V60.64H11.9475V61.588H10.1235V65.032C10.1235 65.376 10.2075 65.64 10.3755 65.824C10.5515 66.008 10.7995 66.1 11.1195 66.1C11.4715 66.1 11.7715 66 12.0195 65.8L12.3795 66.628ZM19.5549 60.64V67H18.4509V65.992C18.1949 66.344 17.8709 66.612 17.4789 66.796C17.0869 66.98 16.6549 67.072 16.1829 67.072C15.5669 67.072 15.0149 66.936 14.5269 66.664C14.0389 66.392 13.6549 66.012 13.3749 65.524C13.1029 65.028 12.9669 64.46 12.9669 63.82C12.9669 63.18 13.1029 62.616 13.3749 62.128C13.6549 61.64 14.0389 61.26 14.5269 60.988C15.0149 60.716 15.5669 60.58 16.1829 60.58C16.6389 60.58 17.0589 60.668 17.4429 60.844C17.8269 61.012 18.1469 61.264 18.4029 61.6V60.64H19.5549ZM16.2789 66.064C16.6789 66.064 17.0429 65.972 17.3709 65.788C17.6989 65.596 17.9549 65.332 18.1389 64.996C18.3229 64.652 18.4149 64.26 18.4149 63.82C18.4149 63.38 18.3229 62.992 18.1389 62.656C17.9549 62.312 17.6989 62.048 17.3709 61.864C17.0429 61.68 16.6789 61.588 16.2789 61.588C15.8709 61.588 15.5029 61.68 15.1749 61.864C14.8549 62.048 14.5989 62.312 14.4069 62.656C14.2229 62.992 14.1309 63.38 14.1309 63.82C14.1309 64.26 14.2229 64.652 14.4069 64.996C14.5989 65.332 14.8549 65.596 15.1749 65.788C15.5029 65.972 15.8709 66.064 16.2789 66.064ZM25.0826 66.628C24.9146 66.772 24.7066 66.884 24.4586 66.964C24.2106 67.036 23.9546 67.072 23.6906 67.072C23.0506 67.072 22.5546 66.9 22.2026 66.556C21.8506 66.212 21.6746 65.72 21.6746 65.08V59.248H22.8266V60.64H24.6506V61.588H22.8266V65.032C22.8266 65.376 22.9106 65.64 23.0786 65.824C23.2546 66.008 23.5026 66.1 23.8226 66.1C24.1746 66.1 24.4746 66 24.7226 65.8L25.0826 66.628ZM26.469 60.64H27.621V67H26.469V60.64ZM27.045 59.416C26.821 59.416 26.633 59.344 26.481 59.2C26.337 59.056 26.265 58.88 26.265 58.672C26.265 58.464 26.337 58.288 26.481 58.144C26.633 57.992 26.821 57.916 27.045 57.916C27.269 57.916 27.453 57.988 27.597 58.132C27.749 58.268 27.825 58.44 27.825 58.648C27.825 58.864 27.749 59.048 27.597 59.2C27.453 59.344 27.269 59.416 27.045 59.416ZM32.5445 67.072C31.9125 67.072 31.3445 66.932 30.8405 66.652C30.3365 66.372 29.9405 65.988 29.6525 65.5C29.3725 65.004 29.2325 64.444 29.2325 63.82C29.2325 63.196 29.3725 62.64 29.6525 62.152C29.9405 61.656 30.3365 61.272 30.8405 61C31.3445 60.72 31.9125 60.58 32.5445 60.58C33.1765 60.58 33.7405 60.72 34.2365 61C34.7405 61.272 35.1325 61.656 35.4125 62.152C35.7005 62.64 35.8445 63.196 35.8445 63.82C35.8445 64.444 35.7005 65.004 35.4125 65.5C35.1325 65.988 34.7405 66.372 34.2365 66.652C33.7405 66.932 33.1765 67.072 32.5445 67.072ZM32.5445 66.064C32.9525 66.064 33.3165 65.972 33.6365 65.788C33.9645 65.596 34.2205 65.332 34.4045 64.996C34.5885 64.652 34.6805 64.26 34.6805 63.82C34.6805 63.38 34.5885 62.992 34.4045 62.656C34.2205 62.312 33.9645 62.048 33.6365 61.864C33.3165 61.68 32.9525 61.588 32.5445 61.588C32.1365 61.588 31.7685 61.68 31.4405 61.864C31.1205 62.048 30.8645 62.312 30.6725 62.656C30.4885 62.992 30.3965 63.38 30.3965 63.82C30.3965 64.26 30.4885 64.652 30.6725 64.996C30.8645 65.332 31.1205 65.596 31.4405 65.788C31.7685 65.972 32.1365 66.064 32.5445 66.064ZM40.8337 60.58C41.6417 60.58 42.2817 60.816 42.7537 61.288C43.2337 61.752 43.4737 62.436 43.4737 63.34V67H42.3217V63.472C42.3217 62.856 42.1737 62.392 41.8777 62.08C41.5817 61.768 41.1577 61.612 40.6057 61.612C39.9817 61.612 39.4897 61.796 39.1297 62.164C38.7697 62.524 38.5897 63.044 38.5897 63.724V67H37.4377V60.64H38.5417V61.6C38.7737 61.272 39.0857 61.02 39.4777 60.844C39.8777 60.668 40.3297 60.58 40.8337 60.58Z" fill="white"/>
</svg>
