<svg width="60" height="61" viewBox="0 0 60 61" fill="none" xmlns="http://www.w3.org/2000/svg">
<g filter="url(#filter0_b_302_82)">
<circle cx="30" cy="30.5" r="30" fill="white" fill-opacity="0.22"/>
</g>
<path d="M37.33 25.194L37.75 23.817C37.7884 23.6914 37.8512 23.5746 37.9347 23.4732C38.0183 23.3719 38.121 23.288 38.237 23.2263C38.3529 23.1646 38.4799 23.1264 38.6107 23.1139C38.7414 23.1013 38.8734 23.1146 38.999 23.153C39.1246 23.1914 39.2414 23.2542 39.3427 23.3377C39.4441 23.4213 39.528 23.524 39.5897 23.64C39.6513 23.7559 39.6895 23.8829 39.7021 24.0137C39.7147 24.1444 39.7014 24.2764 39.663 24.402L38.493 28.227C38.4154 28.4805 38.2404 28.6928 38.0064 28.8173C37.7724 28.9418 37.4985 28.9683 37.245 28.891L33.42 27.721C33.2917 27.6849 33.172 27.6235 33.0678 27.5405C32.9636 27.4575 32.8771 27.3545 32.8132 27.2376C32.7494 27.1207 32.7096 26.9922 32.6961 26.8596C32.6826 26.7271 32.6957 26.5932 32.7347 26.4658C32.7737 26.3384 32.8377 26.2201 32.923 26.1178C33.0084 26.0155 33.1133 25.9313 33.2316 25.8701C33.35 25.8089 33.4793 25.772 33.6121 25.7615C33.7449 25.751 33.8785 25.7671 34.005 25.809L35.677 26.32C34.9378 25.1989 33.9068 24.3007 32.695 23.7221C31.4832 23.1435 30.1366 22.9064 28.8 23.0365C27.4635 23.1665 26.1878 23.6587 25.1102 24.46C24.0327 25.2613 23.1942 26.3414 22.685 27.584L22.425 28.217C22.3777 28.3419 22.3058 28.4561 22.2137 28.5529C22.1215 28.6496 22.0109 28.7269 21.8884 28.7801C21.7659 28.8334 21.6339 28.8616 21.5003 28.863C21.3667 28.8644 21.2342 28.839 21.1106 28.7884C20.9869 28.7377 20.8747 28.6628 20.7805 28.5681C20.6863 28.4733 20.6121 28.3607 20.5622 28.2367C20.5122 28.1128 20.4876 27.9801 20.4898 27.8466C20.492 27.713 20.521 27.5812 20.575 27.459L20.835 26.826C21.4812 25.2493 22.5447 23.8783 23.9113 22.8604C25.2778 21.8425 26.8958 21.216 28.5916 21.0482C30.2873 20.8804 31.9967 21.1777 33.5362 21.9081C35.0758 22.6385 36.3873 23.7745 37.33 25.194ZM21.808 35.807L21.481 37.118C21.4517 37.248 21.3968 37.3709 21.3193 37.4793C21.2419 37.5878 21.1436 37.6797 21.0302 37.7497C20.9167 37.8196 20.7905 37.8662 20.6588 37.8866C20.5271 37.9071 20.3926 37.901 20.2633 37.8687C20.134 37.8364 20.0124 37.7787 19.9058 37.6988C19.7991 37.6188 19.7095 37.5184 19.6422 37.4034C19.5749 37.2884 19.5313 37.161 19.5139 37.0289C19.4965 36.8968 19.5057 36.7625 19.541 36.634L20.508 32.754C20.5406 32.6219 20.5998 32.4978 20.6821 32.3894C20.7643 32.281 20.8678 32.1905 20.9862 32.1235C21.1047 32.0564 21.2355 32.0143 21.3708 31.9996C21.5061 31.9849 21.6429 31.998 21.773 32.038L25.601 32.992C25.8584 33.0562 26.0797 33.22 26.2163 33.4474C26.353 33.6747 26.3937 33.9471 26.3295 34.2045C26.2653 34.4619 26.1015 34.6832 25.8741 34.8198C25.6467 34.9565 25.3744 34.9972 25.117 34.933L23.331 34.488C24.0945 35.6568 25.1737 36.5853 26.4435 37.1656C27.7133 37.7459 29.1216 37.9544 30.5051 37.7668C31.8885 37.5792 33.1904 37.0033 34.2598 36.1058C35.3292 35.2082 36.1223 34.0259 36.547 32.696C36.6276 32.4432 36.8053 32.2329 37.0411 32.1111C37.1578 32.0509 37.2852 32.0142 37.4161 32.0032C37.547 31.9922 37.6788 32.0071 37.804 32.047C37.9291 32.0869 38.0452 32.1511 38.1455 32.2359C38.2459 32.3206 38.3285 32.4243 38.3888 32.5411C38.4491 32.6578 38.4858 32.7852 38.4968 32.9161C38.5078 33.047 38.4929 33.1788 38.453 33.304C38.0367 34.6099 37.3392 35.8088 36.4097 36.8162C35.4802 37.8236 34.3413 38.6151 33.073 39.135C31.0968 39.9446 28.9036 40.056 26.8555 39.451C24.8074 38.8459 23.0269 37.5605 21.808 35.807Z" fill="white"/>
<defs>
<filter id="filter0_b_302_82" x="-4" y="-3.5" width="68" height="68" filterUnits="userSpaceOnUse" color-interpolation-filters="sRGB">
<feFlood flood-opacity="0" result="BackgroundImageFix"/>
<feGaussianBlur in="BackgroundImageFix" stdDeviation="2"/>
<feComposite in2="SourceAlpha" operator="in" result="effect1_backgroundBlur_302_82"/>
<feBlend mode="normal" in="SourceGraphic" in2="effect1_backgroundBlur_302_82" result="shape"/>
</filter>
</defs>
</svg>
