<svg xmlns="http://www.w3.org/2000/svg" width="37" height="36" fill="none" viewBox="0 0 37 36"><g clip-path="url(#clip0_289_72)"><path fill="#fff" d="M16.83 5.05C18.9961 5.04802 21.1141 5.68855 22.9162 6.89054C24.7182 8.09254 26.1233 9.80201 26.9536 11.8027C27.7839 13.8034 28.0022 16.0054 27.5808 18.1301C27.1594 20.2549 26.1173 22.2069 24.5863 23.7393C23.0553 25.2717 21.1042 26.3155 18.9799 26.7389C16.8555 27.1622 14.6533 26.9459 12.6519 26.1174C10.6505 25.2889 8.93971 23.8855 7.73607 22.0845C6.53242 20.2836 5.88996 18.1661 5.88996 16C5.90309 13.1017 7.0596 10.3256 9.10812 8.27522C11.1566 6.22482 13.9316 5.06578 16.83 5.05ZM16.83 3C14.2588 3 11.7454 3.76244 9.60755 5.1909C7.46971 6.61935 5.80347 8.64968 4.81953 11.0251C3.83559 13.4006 3.57815 16.0144 4.07975 18.5362C4.58136 21.0579 5.81949 23.3743 7.63757 25.1924C9.45566 27.0105 11.772 28.2486 14.2938 28.7502C16.8155 29.2518 19.4294 28.9944 21.8048 28.0104C24.1803 27.0265 26.2106 25.3603 27.6391 23.2224C29.0675 21.0846 29.83 18.5712 29.83 16C29.83 12.5522 28.4603 9.24558 26.0224 6.80761C23.5844 4.36964 20.2778 3 16.83 3Z"/><path fill="#fff" d="M35.5 33.29L28.13 25.87L26.71 27.28L34.08 34.7C34.1725 34.7932 34.2826 34.8673 34.4038 34.918C34.525 34.9688 34.655 34.9951 34.7864 34.9956C34.9178 34.996 35.048 34.9706 35.1696 34.9207C35.2912 34.8709 35.4017 34.7976 35.495 34.705C35.5882 34.6124 35.6623 34.5024 35.713 34.3812C35.7637 34.2599 35.7901 34.1299 35.7905 33.9985C35.791 33.8671 35.7656 33.7369 35.7157 33.6154C35.6659 33.4938 35.5925 33.3832 35.5 33.29Z"/></g><defs><clipPath id="clip0_289_72"><rect width="36" height="36" fill="#fff" transform="translate(0.5)"/></clipPath></defs></svg>