<svg width="59" height="70" viewBox="0 0 59 70" fill="none" xmlns="http://www.w3.org/2000/svg">
<g filter="url(#filter0_d_130_100)">
<path d="M36.5001 4.1667H13.1667V35.8334H36.5001V4.1667Z" stroke="white" stroke-width="2" stroke-linejoin="round"/>
<path d="M36.5 17.5H44.8333V35.8334H36.5" stroke="white" stroke-width="2" stroke-linecap="round" stroke-linejoin="round"/>
<path d="M19.8335 17.5H29.8335M24.8335 12.5V22.5" stroke="white" stroke-width="2" stroke-linecap="round"/>
<path d="M11.7555 50.6V59H10.5555V55.256H5.73148V59H4.53148V50.6H5.73148V54.212H10.5555V50.6H11.7555ZM16.8258 59.072C16.1938 59.072 15.6258 58.932 15.1218 58.652C14.6178 58.372 14.2218 57.988 13.9338 57.5C13.6538 57.004 13.5138 56.444 13.5138 55.82C13.5138 55.196 13.6538 54.64 13.9338 54.152C14.2218 53.656 14.6178 53.272 15.1218 53C15.6258 52.72 16.1938 52.58 16.8258 52.58C17.4578 52.58 18.0218 52.72 18.5178 53C19.0218 53.272 19.4138 53.656 19.6938 54.152C19.9818 54.64 20.1258 55.196 20.1258 55.82C20.1258 56.444 19.9818 57.004 19.6938 57.5C19.4138 57.988 19.0218 58.372 18.5178 58.652C18.0218 58.932 17.4578 59.072 16.8258 59.072ZM16.8258 58.064C17.2338 58.064 17.5978 57.972 17.9178 57.788C18.2458 57.596 18.5018 57.332 18.6858 56.996C18.8698 56.652 18.9618 56.26 18.9618 55.82C18.9618 55.38 18.8698 54.992 18.6858 54.656C18.5018 54.312 18.2458 54.048 17.9178 53.864C17.5978 53.68 17.2338 53.588 16.8258 53.588C16.4178 53.588 16.0498 53.68 15.7218 53.864C15.4018 54.048 15.1458 54.312 14.9538 54.656C14.7698 54.992 14.6778 55.38 14.6778 55.82C14.6778 56.26 14.7698 56.652 14.9538 56.996C15.1458 57.332 15.4018 57.596 15.7218 57.788C16.0498 57.972 16.4178 58.064 16.8258 58.064ZM23.543 59.072C23.023 59.072 22.523 59.004 22.043 58.868C21.563 58.724 21.187 58.544 20.915 58.328L21.395 57.416C21.675 57.616 22.015 57.776 22.415 57.896C22.815 58.016 23.219 58.076 23.627 58.076C24.635 58.076 25.139 57.788 25.139 57.212C25.139 57.02 25.071 56.868 24.935 56.756C24.799 56.644 24.627 56.564 24.419 56.516C24.219 56.46 23.931 56.4 23.555 56.336C23.043 56.256 22.623 56.164 22.295 56.06C21.975 55.956 21.699 55.78 21.467 55.532C21.235 55.284 21.119 54.936 21.119 54.488C21.119 53.912 21.359 53.452 21.839 53.108C22.319 52.756 22.963 52.58 23.771 52.58C24.195 52.58 24.619 52.632 25.043 52.736C25.467 52.84 25.815 52.98 26.087 53.156L25.595 54.068C25.075 53.732 24.463 53.564 23.759 53.564C23.271 53.564 22.899 53.644 22.643 53.804C22.387 53.964 22.259 54.176 22.259 54.44C22.259 54.648 22.331 54.812 22.475 54.932C22.619 55.052 22.795 55.14 23.003 55.196C23.219 55.252 23.519 55.316 23.903 55.388C24.415 55.476 24.827 55.572 25.139 55.676C25.459 55.772 25.731 55.94 25.955 56.18C26.179 56.42 26.291 56.756 26.291 57.188C26.291 57.764 26.043 58.224 25.547 58.568C25.059 58.904 24.391 59.072 23.543 59.072ZM31.1027 52.58C31.7187 52.58 32.2707 52.716 32.7587 52.988C33.2467 53.26 33.6267 53.64 33.8987 54.128C34.1787 54.616 34.3187 55.18 34.3187 55.82C34.3187 56.46 34.1787 57.028 33.8987 57.524C33.6267 58.012 33.2467 58.392 32.7587 58.664C32.2707 58.936 31.7187 59.072 31.1027 59.072C30.6467 59.072 30.2267 58.984 29.8427 58.808C29.4667 58.632 29.1467 58.376 28.8827 58.04V61.328H27.7307V52.64H28.8347V53.648C29.0907 53.296 29.4147 53.032 29.8067 52.856C30.1987 52.672 30.6307 52.58 31.1027 52.58ZM31.0067 58.064C31.4147 58.064 31.7787 57.972 32.0987 57.788C32.4267 57.596 32.6827 57.332 32.8667 56.996C33.0587 56.652 33.1547 56.26 33.1547 55.82C33.1547 55.38 33.0587 54.992 32.8667 54.656C32.6827 54.312 32.4267 54.048 32.0987 53.864C31.7787 53.68 31.4147 53.588 31.0067 53.588C30.6067 53.588 30.2427 53.684 29.9147 53.876C29.5947 54.06 29.3387 54.32 29.1467 54.656C28.9627 54.992 28.8707 55.38 28.8707 55.82C28.8707 56.26 28.9627 56.652 29.1467 56.996C29.3307 57.332 29.5867 57.596 29.9147 57.788C30.2427 57.972 30.6067 58.064 31.0067 58.064ZM35.9104 52.64H37.0624V59H35.9104V52.64ZM36.4864 51.416C36.2624 51.416 36.0744 51.344 35.9224 51.2C35.7784 51.056 35.7064 50.88 35.7064 50.672C35.7064 50.464 35.7784 50.288 35.9224 50.144C36.0744 49.992 36.2624 49.916 36.4864 49.916C36.7104 49.916 36.8944 49.988 37.0384 50.132C37.1904 50.268 37.2664 50.44 37.2664 50.648C37.2664 50.864 37.1904 51.048 37.0384 51.2C36.8944 51.344 36.7104 51.416 36.4864 51.416ZM42.6099 58.628C42.4419 58.772 42.2339 58.884 41.9859 58.964C41.7379 59.036 41.4819 59.072 41.2179 59.072C40.5779 59.072 40.0819 58.9 39.7299 58.556C39.3779 58.212 39.2019 57.72 39.2019 57.08V51.248H40.3539V52.64H42.1779V53.588H40.3539V57.032C40.3539 57.376 40.4379 57.64 40.6059 57.824C40.7819 58.008 41.0299 58.1 41.3499 58.1C41.7019 58.1 42.0019 58 42.2499 57.8L42.6099 58.628ZM49.7854 52.64V59H48.6814V57.992C48.4254 58.344 48.1014 58.612 47.7094 58.796C47.3174 58.98 46.8854 59.072 46.4134 59.072C45.7974 59.072 45.2454 58.936 44.7574 58.664C44.2694 58.392 43.8854 58.012 43.6054 57.524C43.3334 57.028 43.1974 56.46 43.1974 55.82C43.1974 55.18 43.3334 54.616 43.6054 54.128C43.8854 53.64 44.2694 53.26 44.7574 52.988C45.2454 52.716 45.7974 52.58 46.4134 52.58C46.8694 52.58 47.2894 52.668 47.6734 52.844C48.0574 53.012 48.3774 53.264 48.6334 53.6V52.64H49.7854ZM46.5094 58.064C46.9094 58.064 47.2734 57.972 47.6014 57.788C47.9294 57.596 48.1854 57.332 48.3694 56.996C48.5534 56.652 48.6454 56.26 48.6454 55.82C48.6454 55.38 48.5534 54.992 48.3694 54.656C48.1854 54.312 47.9294 54.048 47.6014 53.864C47.2734 53.68 46.9094 53.588 46.5094 53.588C46.1014 53.588 45.7334 53.68 45.4054 53.864C45.0854 54.048 44.8294 54.312 44.6374 54.656C44.4534 54.992 44.3614 55.38 44.3614 55.82C44.3614 56.26 44.4534 56.652 44.6374 56.996C44.8294 57.332 45.0854 57.596 45.4054 57.788C45.7334 57.972 46.1014 58.064 46.5094 58.064ZM53.897 59.072C53.281 59.072 52.805 58.904 52.469 58.568C52.133 58.224 51.965 57.744 51.965 57.128V50.096H53.117V57.032C53.117 57.376 53.197 57.64 53.357 57.824C53.525 58.008 53.773 58.1 54.101 58.1C54.301 58.1 54.489 58.06 54.665 57.98L54.725 58.928C54.461 59.024 54.185 59.072 53.897 59.072Z" fill="white"/>
</g>
<defs>
<filter id="filter0_d_130_100" x="-1" y="3.05176e-05" width="60" height="70" filterUnits="userSpaceOnUse" color-interpolation-filters="sRGB">
<feFlood flood-opacity="0" result="BackgroundImageFix"/>
<feColorMatrix in="SourceAlpha" type="matrix" values="0 0 0 0 0 0 0 0 0 0 0 0 0 0 0 0 0 0 127 0" result="hardAlpha"/>
<feOffset dy="4"/>
<feGaussianBlur stdDeviation="2"/>
<feComposite in2="hardAlpha" operator="out"/>
<feColorMatrix type="matrix" values="0 0 0 0 0 0 0 0 0 0 0 0 0 0 0 0 0 0 0.25 0"/>
<feBlend mode="normal" in2="BackgroundImageFix" result="effect1_dropShadow_130_100"/>
<feBlend mode="normal" in="SourceGraphic" in2="effect1_dropShadow_130_100" result="shape"/>
</filter>
</defs>
</svg>
