<svg width="36" height="36" viewBox="0 0 36 36" fill="none" xmlns="http://www.w3.org/2000/svg">
<path d="M18 23.625C19.4918 23.625 20.9226 23.0324 21.9775 21.9775C23.0324 20.9226 23.625 19.4918 23.625 18C23.625 16.5082 23.0324 15.0774 21.9775 14.0225C20.9226 12.9676 19.4918 12.375 18 12.375C16.5082 12.375 15.0774 12.9676 14.0225 14.0225C12.9676 15.0774 12.375 16.5082 12.375 18C12.375 19.4918 12.9676 20.9226 14.0225 21.9775C15.0774 23.0324 16.5082 23.625 18 23.625ZM19.125 3.375C19.125 3.07663 19.0065 2.79048 18.7955 2.5795C18.5845 2.36853 18.2984 2.25 18 2.25C17.7016 2.25 17.4155 2.36853 17.2045 2.5795C16.9935 2.79048 16.875 3.07663 16.875 3.375V6.80625C14.2932 7.06655 11.8807 8.211 10.0458 10.0458C8.211 11.8807 7.06655 14.2932 6.80625 16.875H3.375C3.07663 16.875 2.79048 16.9935 2.5795 17.2045C2.36853 17.4155 2.25 17.7016 2.25 18C2.25 18.2984 2.36853 18.5845 2.5795 18.7955C2.79048 19.0065 3.07663 19.125 3.375 19.125H6.80625C7.06606 21.7072 8.21029 24.1202 10.0452 25.9555C11.8801 27.7908 14.2929 28.9356 16.875 29.196V32.625C16.875 32.9234 16.9935 33.2095 17.2045 33.4205C17.4155 33.6315 17.7016 33.75 18 33.75C18.2984 33.75 18.5845 33.6315 18.7955 33.4205C19.0065 33.2095 19.125 32.9234 19.125 32.625V29.196C21.7071 28.9356 24.1199 27.7908 25.9548 25.9555C27.7897 24.1202 28.9339 21.7072 29.1938 19.125H32.625C32.9234 19.125 33.2095 19.0065 33.4205 18.7955C33.6315 18.5845 33.75 18.2984 33.75 18C33.75 17.7016 33.6315 17.4155 33.4205 17.2045C33.2095 16.9935 32.9234 16.875 32.625 16.875H29.1938C28.9335 14.2932 27.789 11.8807 25.9542 10.0458C24.1193 8.211 21.7068 7.06655 19.125 6.80625V3.375ZM18 27C15.6131 27 13.3239 26.0518 11.636 24.364C9.94821 22.6761 9 20.3869 9 18C9 15.6131 9.94821 13.3239 11.636 11.636C13.3239 9.94821 15.6131 9 18 9C20.3869 9 22.6761 9.94821 24.364 11.636C26.0518 13.3239 27 15.6131 27 18C27 20.3869 26.0518 22.6761 24.364 24.364C22.6761 26.0518 20.3869 27 18 27Z" fill="white"/>
</svg>
